<svg id="Layer_1" data-name="Layer 1" xmlns="http://www.w3.org/2000/svg" xmlns:xlink="http://www.w3.org/1999/xlink" viewBox="0 0 455.2 453.5"><defs><style>.cls-1{fill:#ef3939;}.cls-2{fill:url(#linear-gradient);}.cls-3{fill:#fff;}</style><linearGradient id="linear-gradient" x1="-27.12" y1="483.07" x2="-26.57" y2="482.13" gradientTransform="matrix(397.77, 0, 0, -396.34, 10928.3, 191538.55)" gradientUnits="userSpaceOnUse"><stop offset="0" stop-opacity="0.2"/><stop offset="0.79" stop-opacity="0.05"/></linearGradient></defs><title>vivaldi</title><path class="cls-1" d="M227.6,453.5c99.7,0,155.1,0,191.4-36.1s36.2-91.3,36.2-190.7S455.2,72.1,419,36,327.3,0,227.6,0,72.5,0,36.2,36.1,0,127.4,0,226.8,0,381.4,36.2,417.5,127.9,453.5,227.6,453.5Z"/><path class="cls-2" d="M375.6,142.9A170.38,170.38,0,0,0,271.4,62.8C180.3,38.5,86.7,92.3,62.3,183A168.61,168.61,0,0,0,79.8,312.7a14,14,0,0,0,1,1.6L161,452.8c13.3.4,27.7.5,43.2.5h22.6c44.3,0,79.9,0,109-3.2,36.3-4,62.3-12.9,82.4-32.9,29.3-29.2,34.9-71,36-138.7-46.8-80.8-78.5-135.5-78.6-135.6Z"/><path class="cls-3" d="M347.4,106.8c-66.5-66.4-174.4-66.4-241,0s-66.5,174,0,240.3,174.4,66.4,241,0A169.48,169.48,0,0,0,347.4,106.8Zm-10.2,78.1q-42.15,73-84.3,146.2c-5.2,9.1-12.8,14.5-23.2,15.3-11.6.8-20.8-4.1-26.7-14.1-17.8-30.5-35.4-61.2-53-91.8-10.7-18.6-21.5-37.2-32.2-55.9s1.4-41.7,23-42.8c11.4-.6,20.2,4.7,26,14.6,7.9,13.5,15.7,27.2,23.6,40.8,5.7,9.8,11.2,19.7,17,29.3,8.4,14.1,20.8,22,37.3,23a45.42,45.42,0,0,0,47.8-40.2c.2-1.8.3-3.7.4-4.6a46.5,46.5,0,0,0-4.8-21.1c-8.7-17.4.6-36.9,19.5-41.1C323,139.1,339,150.4,341,166a28.54,28.54,0,0,1-3.8,18.9Z"/></svg>