<?xml version="1.0" encoding="utf-8"?><svg version="1.1" id="Layer_1" xmlns:svg="http://www.w3.org/2000/svg" xmlns="http://www.w3.org/2000/svg" xmlns:xlink="http://www.w3.org/1999/xlink" x="0px" y="0px" viewBox="0 0 254 349.247" enable-background="new 0 0 254 349.247" xml:space="preserve"><g id="g22" transform="scale(11.905878)"><path id="path8" fill="#00832D" d="M7.334,22H0v5.334c0,1.105,0.895,2,2,2h5.334V22z"/><path id="path10" fill="#FFBA00" d="M7.334,0H2C0.895,0,0,0.895,0,2v20h7.334V7.334H14V0H7.334z"/><path id="path12" fill="#0066DA" d="M21.334,22H14v7.334h5.334c1.105,0,2-0.895,2-2V22z"/><path id="path14" fill="#00AC47" d="M14,22H7.334v7.334H14V22z"/><path id="path16" fill="#2684FC" d="M14,7.334V22h7.334V7.334H14z"/><path id="path18" fill="#EA4335" d="M14,0v7.334h7.334L14,0z"/></g></svg>