<svg xmlns="http://www.w3.org/2000/svg" shape-rendering="geometricPrecision" text-rendering="geometricPrecision" image-rendering="optimizeQuality" fill-rule="evenodd" clip-rule="evenodd" viewBox="0 0 512 512"><g fill-rule="nonzero"><path fill="red" d="M255.94 511.99A256.003 256.003 0 00492.5 354a255.946 255.946 0 0014.58-147.91A255.993 255.993 0 00437.04 75 256.07 256.07 0 00305.97 4.92a256.064 256.064 0 00-147.92 14.56 255.926 255.926 0 00-114.9 94.29A256 256 0 000 256c0 33.61 6.61 66.9 19.47 97.96a255.843 255.843 0 0055.47 83.05 255.991 255.991 0 0083.04 55.5 255.902 255.902 0 0097.96 19.48z"/><path fill="#fff" d="M255.94 121.22c26.68-.03 52.76 7.85 74.96 22.64a134.84 134.84 0 0149.74 60.49 134.797 134.797 0 017.73 77.92 134.58 134.58 0 01-36.88 69.08 134.822 134.822 0 01-69.05 36.95 134.83 134.83 0 01-77.93-7.68 134.778 134.778 0 01-60.52-49.68A134.88 134.88 0 01121.27 256c.06-35.71 14.25-69.95 39.49-95.21a134.945 134.945 0 0195.18-39.57zm-49.42 210.43L337.45 256l-130.93-75.59v151.24zm49.42-231.05c-30.75 0-60.81 9.12-86.38 26.2a155.438 155.438 0 00-57.25 69.78 155.413 155.413 0 00-8.84 89.82 155.524 155.524 0 0042.56 79.6 155.467 155.467 0 0079.62 42.53 155.43 155.43 0 0089.82-8.87 155.371 155.371 0 0069.75-57.28A155.408 155.408 0 00411.39 256c0-20.42-4.02-40.63-11.83-59.49a155.455 155.455 0 00-33.7-50.42 155.536 155.536 0 00-50.44-33.68 155.44 155.44 0 00-59.48-11.81z"/></g></svg>