<?xml version="1.0" encoding="utf-8"?><svg version="1.1" id="Layer_1" xmlns="http://www.w3.org/2000/svg" xmlns:xlink="http://www.w3.org/1999/xlink" x="0px" y="0px" viewBox="0 0 122.88 122.88" style="enable-background:new 0 0 122.88 122.88" xml:space="preserve"><style type="text/css">.st0{fill:#F6B704;} .st1{fill:#E54335;} .st2{fill:#4280EF;} .st3{fill:#34A353;}</style><g><path class="st0" d="M30.72,27.97c16.95,0,30.72,13.77,30.72,30.72v2.83H2.83c-1.52,0-2.75-1.23-2.83-2.83 C0,41.73,13.77,27.97,30.72,27.97L30.72,27.97z"/><path class="st1" d="M94.91,30.72c0,16.95-13.77,30.72-30.72,30.72l-2.75,0V2.83C61.44,1.3,62.67,0,64.19,0 C81.22,0,94.91,13.77,94.91,30.72L94.91,30.72z"/><path class="st2" d="M92.16,94.99c-16.95,0-30.72-13.77-30.72-30.72v-2.83h58.61c1.52,0,2.83,1.23,2.83,2.75 C122.88,81.22,109.11,94.99,92.16,94.99L92.16,94.99L92.16,94.99z"/><path class="st3" d="M27.97,92.16c0-16.95,13.77-30.72,30.72-30.72h2.75v58.61c0,1.52-1.23,2.75-2.83,2.83 C41.66,122.88,27.97,109.11,27.97,92.16L27.97,92.16L27.97,92.16z"/></g></svg>